<svg width="273" height="273" viewBox="0 0 273 273" fill="none" xmlns="http://www.w3.org/2000/svg">
<g opacity="0.2" filter="url(#filter0_d_229_8)">
<path d="M178.554 229.736C178.655 229.96 178.556 230.223 178.332 230.323C163.008 237.174 146.239 240.177 129.485 239.067C112.584 237.948 96.2196 232.678 81.8416 223.723C67.4635 214.769 55.5158 202.406 47.0566 187.731C38.5975 173.056 33.888 156.522 33.3454 139.592C32.8028 122.662 36.4438 105.86 43.9459 90.6735C51.4481 75.487 62.5797 62.3851 76.3548 52.5283C90.1299 42.6714 106.123 36.364 122.918 34.1646C139.567 31.9844 156.493 33.9076 172.225 39.7635C172.454 39.849 172.57 40.1051 172.484 40.3344C172.397 40.5636 172.141 40.6793 171.912 40.5938C156.317 34.7893 139.537 32.8832 123.034 35.0444C106.383 37.2249 90.5276 43.478 76.8712 53.2499C63.2147 63.0218 52.179 76.0109 44.7415 91.0665C37.3041 106.122 33.6944 122.78 34.2323 139.564C34.7702 156.348 39.4391 172.74 47.8254 187.288C56.2117 201.837 68.0565 214.092 82.3107 222.97C96.5648 231.847 112.788 237.072 129.544 238.182C146.152 239.282 162.775 236.305 177.967 229.514C178.19 229.414 178.453 229.513 178.554 229.736Z" fill="url(#paint0_linear_229_8)" shape-rendering="crispEdges"/>
</g>
<g filter="url(#filter1_d_229_8)">
<circle cx="1.5" cy="1.5" r="1.5" transform="matrix(-0.412082 -0.911147 -0.911147 0.412082 174.459 41.1078)" fill="#E16C00"/>
</g>
<g opacity="0.18" filter="url(#filter2_d_229_8)">
<path d="M212.608 83.9173C212.788 83.794 213.033 83.8395 213.156 84.0194C221.551 96.3439 226.808 110.535 228.466 125.359C230.139 140.313 228.098 155.449 222.525 169.426C216.951 183.403 208.016 195.79 196.511 205.489C185.007 215.188 171.288 221.901 156.57 225.032C141.851 228.162 126.588 227.615 112.132 223.438C97.6759 219.261 84.473 211.583 73.6929 201.085C62.9127 190.586 54.8881 177.591 50.3298 163.251C45.8113 149.036 44.837 133.933 47.4892 119.259C47.5279 119.045 47.7336 118.903 47.9477 118.943C48.1617 118.982 48.303 119.188 48.2643 119.402C45.6358 133.949 46.6018 148.92 51.081 163.012C55.6001 177.229 63.5556 190.112 74.2429 200.52C84.9301 210.928 98.0193 218.539 112.351 222.681C126.682 226.822 141.814 227.364 156.406 224.26C170.997 221.157 184.598 214.502 196.003 204.887C207.409 195.271 216.266 182.991 221.792 169.134C227.318 155.277 229.341 140.272 227.683 125.446C226.039 110.752 220.828 96.6836 212.506 84.466C212.384 84.2861 212.429 84.0406 212.608 83.9173Z" fill="url(#paint1_linear_229_8)" shape-rendering="crispEdges"/>
</g>
<g filter="url(#filter3_d_229_8)">
<circle cx="1.5" cy="1.5" r="1.5" transform="matrix(0.391181 -0.920314 -0.920314 -0.391181 49.0532 121.228)" fill="#E16C00"/>
</g>
<defs>
<filter id="filter0_d_229_8" x="29.2925" y="33.2926" width="153.301" height="214" filterUnits="userSpaceOnUse" color-interpolation-filters="sRGB">
<feFlood flood-opacity="0" result="BackgroundImageFix"/>
<feColorMatrix in="SourceAlpha" type="matrix" values="0 0 0 0 0 0 0 0 0 0 0 0 0 0 0 0 0 0 127 0" result="hardAlpha"/>
<feOffset dy="4"/>
<feGaussianBlur stdDeviation="2"/>
<feComposite in2="hardAlpha" operator="out"/>
<feColorMatrix type="matrix" values="0 0 0 0 0 0 0 0 0 0 0 0 0 0 0 0 0 0 0.06 0"/>
<feBlend mode="normal" in2="BackgroundImageFix" result="effect1_dropShadow_229_8"/>
<feBlend mode="normal" in="SourceGraphic" in2="effect1_dropShadow_229_8" result="shape"/>
</filter>
<filter id="filter1_d_229_8" x="166.974" y="36.8588" width="11.0007" height="11.0009" filterUnits="userSpaceOnUse" color-interpolation-filters="sRGB">
<feFlood flood-opacity="0" result="BackgroundImageFix"/>
<feColorMatrix in="SourceAlpha" type="matrix" values="0 0 0 0 0 0 0 0 0 0 0 0 0 0 0 0 0 0 127 0" result="hardAlpha"/>
<feOffset dy="2"/>
<feGaussianBlur stdDeviation="2"/>
<feComposite in2="hardAlpha" operator="out"/>
<feColorMatrix type="matrix" values="0 0 0 0 0.883333 0 0 0 0 0.424 0 0 0 0 0 0 0 0 1 0"/>
<feBlend mode="normal" in2="BackgroundImageFix" result="effect1_dropShadow_229_8"/>
<feBlend mode="normal" in="SourceGraphic" in2="effect1_dropShadow_229_8" result="shape"/>
</filter>
<filter id="filter2_d_229_8" x="42.0304" y="83.848" width="191.003" height="151.186" filterUnits="userSpaceOnUse" color-interpolation-filters="sRGB">
<feFlood flood-opacity="0" result="BackgroundImageFix"/>
<feColorMatrix in="SourceAlpha" type="matrix" values="0 0 0 0 0 0 0 0 0 0 0 0 0 0 0 0 0 0 127 0" result="hardAlpha"/>
<feOffset dy="4"/>
<feGaussianBlur stdDeviation="2"/>
<feComposite in2="hardAlpha" operator="out"/>
<feColorMatrix type="matrix" values="0 0 0 0 0 0 0 0 0 0 0 0 0 0 0 0 0 0 0.06 0"/>
<feBlend mode="normal" in2="BackgroundImageFix" result="effect1_dropShadow_229_8"/>
<feBlend mode="normal" in="SourceGraphic" in2="effect1_dropShadow_229_8" result="shape"/>
</filter>
<filter id="filter3_d_229_8" x="42.7591" y="115.76" width="11.0008" height="11.0009" filterUnits="userSpaceOnUse" color-interpolation-filters="sRGB">
<feFlood flood-opacity="0" result="BackgroundImageFix"/>
<feColorMatrix in="SourceAlpha" type="matrix" values="0 0 0 0 0 0 0 0 0 0 0 0 0 0 0 0 0 0 127 0" result="hardAlpha"/>
<feOffset dy="2"/>
<feGaussianBlur stdDeviation="2"/>
<feComposite in2="hardAlpha" operator="out"/>
<feColorMatrix type="matrix" values="0 0 0 0 0.883333 0 0 0 0 0.424 0 0 0 0 0 0 0 0 1 0"/>
<feBlend mode="normal" in2="BackgroundImageFix" result="effect1_dropShadow_229_8"/>
<feBlend mode="normal" in="SourceGraphic" in2="effect1_dropShadow_229_8" result="shape"/>
</filter>
<linearGradient id="paint0_linear_229_8" x1="156.889" y1="32.5909" x2="230.141" y2="93.8482" gradientUnits="userSpaceOnUse">
<stop stop-color="white"/>
<stop offset="1" stop-color="white" stop-opacity="0"/>
</linearGradient>
<linearGradient id="paint1_linear_229_8" x1="43.6237" y1="133.794" x2="85.6936" y2="60.1313" gradientUnits="userSpaceOnUse">
<stop stop-color="white"/>
<stop offset="1" stop-color="white" stop-opacity="0"/>
</linearGradient>
</defs>
</svg>
