<svg width="59" height="78" viewBox="0 0 59 78" fill="none" xmlns="http://www.w3.org/2000/svg">
<path fill-rule="evenodd" clip-rule="evenodd" d="M25.8875 0.161376C19.3496 0.996761 13.3213 3.92808 8.65743 8.53932C4.64614 12.5053 1.94796 17.3958 0.696639 22.9682C-0.78204 29.5531 0.0619097 35.7426 3.52886 43.7386C7.62225 53.1789 16.1764 65.0006 26.5204 75.5119C29.5048 78.5448 29.4296 78.5209 31.0696 76.9562C32.6257 75.4714 36.6802 71.1132 38.9761 68.4575C50.6572 54.9458 57.4684 42.5831 58.7808 32.5114C60.0837 22.511 55.4964 11.9348 47.2082 5.83056C43.2358 2.90489 39.1601 1.1768 34.1887 0.310465C32.235 -0.0300924 27.9829 -0.106466 25.8875 0.161376ZM32.8051 16.2139C37.8079 17.5725 41.3184 21.0922 42.6567 26.0913C43.0778 27.6643 43.0543 30.8513 42.6095 32.481C41.7058 35.7923 39.6712 38.6272 36.942 40.378C28.1743 46.0026 16.6911 40.2933 16.017 29.9746C15.77 26.1948 17.1961 22.5143 19.9753 19.7582C22.0004 17.7499 24.3034 16.5383 27.1173 16.0008C28.5596 15.7252 31.397 15.8316 32.8051 16.2139Z" fill="white" fill-opacity="0.97"/>
</svg>
