<svg width="169" height="51" viewBox="0 0 169 51" fill="none" xmlns="http://www.w3.org/2000/svg">
<path fill-rule="evenodd" clip-rule="evenodd" d="M24.9604 39.9802C26.6781 39.2202 28.4362 40.0602 29.2041 41.6802C30.2348 43.9002 28.8 47.6402 26.5771 50.9602H32.3162C33.9127 47.4602 34.62 45.2602 34.62 42.9802C34.62 37.6602 30.0327 34.6602 26.2335 34.6602C19.9891 34.6602 16.1091 41.0602 18.5948 46.5002L23.2225 44.2402C22.6971 43.1602 22.8587 40.9002 24.9604 39.9802Z" fill="#d7ddf0"/>
<path fill-rule="evenodd" clip-rule="evenodd" d="M43.5723 7.9802C50.7058 7.9802 59.1327 14.6002 59.0317 23.4002L63.9423 34.6602H59.3752C59.3752 38.2602 59.3752 41.8402 59.3752 45.4402H50.6048L48.3415 50.9402H36.8025C40.4198 44.1202 39.1669 38.9802 36.3781 35.2602C34.0946 32.2402 33.0235 29.0802 33.0235 26.4602C33.0235 20.2602 38.1767 15.8402 42.9054 15.8202C46.9673 15.8002 50.0996 18.7002 50.0996 22.1402C50.0996 24.8202 48.7052 27.7402 45.9771 28.6202C44.7242 29.0202 43.6733 28.4402 43.1883 27.6002C42.4406 26.2802 43.1277 25.0002 44.1179 24.3802C44.7242 24.0002 45.2698 23.3402 45.2294 22.3802C45.1889 20.9402 43.8148 19.8602 42.3396 20.2002C39.9954 20.7402 37.7725 23.2802 37.7725 26.4002C37.7725 30.2602 41.6525 33.4602 45.2698 33.4602C50.3825 33.4602 55.091 28.0802 54.6465 22.4002C54.2221 16.9602 49.6348 12.3602 43.5925 12.3602C39.4296 12.3602 37.3279 13.0802 32.2354 17.1802C27.4662 21.1602 21.4644 22.5402 16.8771 18.1602C12.7546 14.2402 13.8256 6.5802 18.9585 4.1002C23.4852 1.9202 27.5673 3.0602 30.4571 6.3802L26.9004 8.9002C25.7485 7.4202 22.98 6.5802 20.7369 8.0802C18.3927 9.6402 18.1704 12.5402 19.4031 14.3802C21.5654 17.6202 25.4858 16.8202 28.3352 14.7202C34.1148 10.4202 36.4387 7.9802 43.5723 7.9802Z" fill="#d7ddf0"/>
<path fill-rule="evenodd" clip-rule="evenodd" d="M53.8381 8.24004L56.3642 4.68004C53.4542 2.66004 50.039 1.28003 46.2802 0.760034L45.674 5.08004C48.7254 5.48004 51.494 6.60004 53.8381 8.24004ZM42.1981 4.90004L41.9758 0.540039C38.4192 0.720039 34.8625 1.70004 31.5685 3.58004L33.7712 7.36003C36.4387 5.84003 39.3285 5.04004 42.1981 4.90004Z" fill="#d7ddf0"/>
<path fill-rule="evenodd" clip-rule="evenodd" d="M23.2831 13.5403C24.1925 13.5403 24.9402 12.8003 24.9402 11.9003C24.9402 11.0003 24.1925 10.2603 23.2831 10.2603C22.3737 10.2603 21.626 11.0003 21.626 11.9003C21.626 12.8003 22.3535 13.5403 23.2831 13.5403Z" fill="#d7ddf0"/>
<path fill-rule="evenodd" clip-rule="evenodd" d="M7.56101 17.5202C9.19789 15.9002 11.825 15.9002 13.4618 17.5202C15.0987 19.1402 15.0987 21.7402 13.4618 23.3602C11.825 24.9802 9.19789 24.9802 7.56101 23.3602C5.94434 21.7402 5.94434 19.1202 7.56101 17.5202ZM8.59163 20.4402L10.5114 22.3402L12.4312 20.4402L10.5114 18.5402L8.59163 20.4402Z" fill="#d7ddf0"/>
<path fill-rule="evenodd" clip-rule="evenodd" d="M8.47044 8C10.3094 8 11.8048 9.48 11.7846 11.32C11.7846 13.14 10.2892 14.62 8.45023 14.6C6.61127 14.6 5.11586 13.12 5.13607 11.3C5.13607 9.46 6.63148 8 8.47044 8ZM7.37919 10.22V12.36H9.54148V10.22H7.37919Z" fill="#d7ddf0"/>
<path d="M11.8957 3.14824L10.4464 4.73633L12.051 6.17077L13.5004 4.58268L11.8957 3.14824Z" fill="#d7ddf0"/>
<path fill-rule="evenodd" clip-rule="evenodd" d="M6.89415 25.4199C4.87332 27.8199 2.85249 30.2199 0.851868 32.6199L3.31729 34.6599L7.31853 29.9199L12.1079 33.8799L16.1092 29.1399L20.8985 33.0999L24.8998 28.3599L29.6892 32.2999L31.7504 29.8599C29.3254 27.8599 26.9004 25.8599 24.4754 23.8799C23.1417 25.4599 21.8079 27.0399 20.4742 28.6199C18.8777 27.2999 17.2812 25.9799 15.6848 24.6599C14.351 26.2399 13.0173 27.8199 11.6835 29.3999C10.0871 28.0599 8.49061 26.7399 6.89415 25.4199Z" fill="#d7ddf0"/>
<path fill-rule="evenodd" clip-rule="evenodd" d="M7.13666 35.7803L15.5635 35.8003V35.8203L8.49062 39.8603L9.885 42.2403L11.2187 44.5403L13.6235 43.1603L12.2696 40.8603L15.5635 39.0003V45.7803H7.13666V35.7803Z" fill="#d7ddf0"/>
<path fill-rule="evenodd" clip-rule="evenodd" d="M81.4225 17.82H84.6154V30.08H81.4225V28.8C80.6546 29.56 79.1592 30.36 77.5223 30.36C74.0465 30.36 71.379 27.34 71.379 23.94C71.379 20.54 73.9656 17.52 77.5223 17.52C79.2602 17.52 80.6546 18.34 81.4225 19.16V17.82ZM164.903 17.82H168.096V30.08H164.903V28.8C164.135 29.56 162.64 30.36 161.003 30.36C157.527 30.36 154.86 27.34 154.86 23.94C154.86 20.54 157.446 17.52 161.003 17.52C162.741 17.52 164.135 18.34 164.903 19.16V17.82ZM161.407 27.4C163.226 27.4 164.883 25.96 164.883 23.96C164.883 22.18 163.448 20.52 161.407 20.52C159.568 20.52 157.931 21.96 157.931 23.96C157.931 25.76 159.366 27.4 161.407 27.4ZM77.9265 27.4C79.7452 27.4 81.4023 25.96 81.4023 23.96C81.4023 22.18 79.9675 20.52 77.9265 20.52C76.0875 20.52 74.4506 21.96 74.4506 23.96C74.4506 25.76 75.8854 27.4 77.9265 27.4ZM148.332 30.32C144.695 30.32 141.866 27.38 141.866 23.94C141.866 20.46 144.654 17.52 148.332 17.52C150.616 17.52 152.738 18.72 153.89 20.66L151.202 22.22C150.636 21.28 149.565 20.58 148.373 20.58C146.392 20.58 144.998 22.16 144.998 23.92C144.998 25.82 146.433 27.26 148.373 27.26C149.565 27.26 150.656 26.54 151.202 25.56L153.89 27.16C152.778 29.08 150.656 30.32 148.332 30.32Z" fill="#d7ddf0"/>
<path fill-rule="evenodd" clip-rule="evenodd" d="M77.9265 37.3398C77.3 37.2798 76.8554 37.3998 76.5523 37.6598C76.2492 37.9198 76.1077 38.3398 76.1077 38.9598V39.2198H77.9265V40.0198H76.1077V45.4798H75.2792V39.9998H74.2081V39.1998H75.2792V38.9398C75.2792 38.1198 75.5015 37.4998 75.9663 37.0798C76.431 36.6598 77.0777 36.4798 77.9265 36.5398V37.3398ZM79.6442 40.2398C80.0281 39.4798 80.695 39.0998 81.6448 39.0998V39.8998C81.079 39.8998 80.594 40.0598 80.21 40.3998C79.826 40.7398 79.6442 41.2598 79.6442 41.9798V45.4598H78.8156V39.1998H79.6442V40.2398ZM85.3429 39.0598C86.2725 39.0598 87.0404 39.3798 87.6265 40.0398C88.2125 40.6998 88.4954 41.4798 88.4954 42.3598C88.4954 42.4598 88.4954 42.5798 88.4752 42.7398H82.9179C82.9987 43.3798 83.2817 43.8798 83.7262 44.2598C84.191 44.6398 84.7569 44.8198 85.4238 44.8198C85.9088 44.8198 86.3129 44.7198 86.6767 44.5198C87.0202 44.3198 87.2829 44.0598 87.4648 43.7398L88.1923 44.1598C87.9094 44.5998 87.5254 44.9598 87.0606 45.2198C86.5756 45.4798 86.03 45.5998 85.4035 45.5998C84.4133 45.5998 83.605 45.2998 82.9785 44.6798C82.3521 44.0598 82.049 43.2798 82.049 42.3198C82.049 41.3798 82.3521 40.5998 82.9785 39.9798C83.5848 39.3598 84.3729 39.0598 85.3429 39.0598ZM85.3429 39.8598C84.676 39.8598 84.1304 40.0598 83.6858 40.4398C83.2412 40.8198 82.9785 41.3398 82.8977 41.9598H87.6265C87.5456 41.2998 87.2829 40.7798 86.8585 40.4198C86.414 40.0398 85.9087 39.8598 85.3429 39.8598ZM92.7392 39.0598C93.6688 39.0598 94.4367 39.3798 95.0227 40.0398C95.6088 40.6998 95.8917 41.4798 95.8917 42.3598C95.8917 42.4598 95.8917 42.5798 95.8715 42.7398H90.3142C90.395 43.3798 90.6779 43.8798 91.1225 44.2598C91.5873 44.6398 92.1531 44.8198 92.82 44.8198C93.305 44.8198 93.7092 44.7198 94.0729 44.5198C94.4165 44.3198 94.6792 44.0598 94.861 43.7398L95.5885 44.1598C95.3056 44.5998 94.9217 44.9598 94.4569 45.2198C93.9719 45.4798 93.4263 45.5998 92.7998 45.5998C91.8096 45.5998 91.0013 45.2998 90.3748 44.6798C89.7483 44.0598 89.4452 43.2798 89.4452 42.3198C89.4452 41.3798 89.7483 40.5998 90.3748 39.9798C90.981 39.3598 91.7692 39.0598 92.7392 39.0598ZM92.7392 39.8598C92.0723 39.8598 91.5267 40.0598 91.0821 40.4398C90.6375 40.8198 90.3748 41.3398 90.294 41.9598H95.0227C94.9419 41.2998 94.6792 40.7798 94.2548 40.4198C93.8102 40.0398 93.305 39.8598 92.7392 39.8598ZM97.2052 45.4798V36.3198H98.0337V45.4798H97.2052ZM105.268 39.1998H106.097V45.4598H105.268V44.2398C104.682 45.1598 103.834 45.6198 102.702 45.6198C101.792 45.6198 101.025 45.2998 100.398 44.6598C99.7515 44.0198 99.4483 43.2398 99.4483 42.3198C99.4483 41.3998 99.7717 40.6198 100.398 39.9798C101.045 39.3398 101.813 39.0198 102.702 39.0198C103.834 39.0198 104.682 39.4798 105.268 40.3998V39.1998ZM101.004 44.0998C101.489 44.5798 102.075 44.8198 102.783 44.8198C103.49 44.8198 104.076 44.5798 104.561 44.0998C105.046 43.6198 105.289 43.0398 105.289 42.3398C105.289 41.6398 105.046 41.0598 104.561 40.5798C104.076 40.0998 103.49 39.8598 102.783 39.8598C102.075 39.8598 101.489 40.0998 101.004 40.5798C100.519 41.0598 100.277 41.6398 100.277 42.3398C100.277 43.0398 100.519 43.6198 101.004 44.0998ZM110.846 39.0598C111.614 39.0598 112.22 39.2998 112.665 39.7598C113.109 40.2198 113.331 40.8398 113.331 41.6398V45.4798H112.503V41.6398C112.503 41.0798 112.361 40.6398 112.058 40.3398C111.755 40.0398 111.331 39.8798 110.785 39.8798C110.179 39.8798 109.674 40.0798 109.31 40.4598C108.926 40.8398 108.744 41.4198 108.744 42.2198V45.4998H107.916V39.1998H108.744V40.1798C109.189 39.4398 109.896 39.0598 110.846 39.0598ZM117.899 45.6198C116.949 45.6198 116.14 45.2998 115.514 44.6798C114.887 44.0598 114.564 43.2598 114.564 42.3398C114.564 41.4198 114.887 40.6398 115.514 39.9998C116.14 39.3598 116.949 39.0598 117.899 39.0598C118.525 39.0598 119.091 39.1998 119.576 39.4998C120.081 39.7998 120.445 40.1998 120.667 40.6998L119.98 41.0798C119.818 40.6998 119.535 40.3998 119.172 40.1798C118.788 39.9598 118.363 39.8398 117.899 39.8398C117.191 39.8398 116.605 40.0798 116.12 40.5598C115.635 41.0398 115.393 41.6198 115.393 42.3198C115.393 43.0198 115.635 43.5998 116.12 44.0798C116.605 44.5598 117.191 44.7998 117.899 44.7998C118.363 44.7998 118.788 44.6798 119.172 44.4598C119.535 44.2398 119.839 43.9398 120.041 43.5598L120.728 43.9598C120.465 44.4598 120.081 44.8598 119.576 45.1598C119.071 45.4798 118.525 45.6198 117.899 45.6198ZM124.81 39.0598C125.739 39.0598 126.507 39.3798 127.093 40.0398C127.679 40.6998 127.962 41.4798 127.962 42.3598C127.962 42.4598 127.962 42.5798 127.942 42.7398H122.365C122.445 43.3798 122.728 43.8798 123.173 44.2598C123.638 44.6398 124.204 44.8198 124.87 44.8198C125.355 44.8198 125.76 44.7198 126.123 44.5198C126.467 44.3198 126.73 44.0598 126.911 43.7398L127.639 44.1598C127.356 44.5998 126.972 44.9598 126.507 45.2198C126.022 45.4798 125.477 45.5998 124.85 45.5998C123.86 45.5998 123.052 45.2998 122.425 44.6798C121.799 44.0598 121.496 43.2798 121.496 42.3198C121.496 41.3798 121.799 40.5998 122.425 39.9798C123.052 39.3598 123.84 39.0598 124.81 39.0598ZM124.81 39.8598C124.143 39.8598 123.597 40.0598 123.153 40.4398C122.708 40.8198 122.445 41.3398 122.365 41.9598H127.093C127.013 41.2998 126.75 40.7798 126.325 40.4198C125.881 40.0398 125.376 39.8598 124.81 39.8598ZM129.842 45.3998C129.7 45.5398 129.539 45.5998 129.357 45.5998C129.155 45.5998 128.993 45.5398 128.872 45.3998C128.73 45.2598 128.67 45.0998 128.67 44.9198C128.67 44.7198 128.73 44.5598 128.872 44.4398C129.013 44.2998 129.175 44.2398 129.357 44.2398C129.559 44.2398 129.72 44.2998 129.842 44.4398C129.983 44.5798 130.044 44.7398 130.044 44.9198C130.044 45.0998 129.963 45.2598 129.842 45.3998ZM136.632 36.6998H137.46V45.4798H136.632V44.2598C136.046 45.1798 135.197 45.6398 134.065 45.6398C133.156 45.6398 132.388 45.3198 131.761 44.6798C131.115 44.0398 130.812 43.2598 130.812 42.3398C130.812 41.4198 131.135 40.6398 131.761 39.9998C132.408 39.3598 133.176 39.0398 134.065 39.0398C135.197 39.0398 136.046 39.4998 136.632 40.4198V36.6998ZM132.368 44.0998C132.853 44.5798 133.439 44.8198 134.146 44.8198C134.853 44.8198 135.439 44.5798 135.924 44.0998C136.409 43.6198 136.652 43.0398 136.652 42.3398C136.652 41.6398 136.409 41.0598 135.924 40.5798C135.439 40.0998 134.853 39.8598 134.146 39.8598C133.439 39.8598 132.853 40.0998 132.368 40.5798C131.883 41.0598 131.64 41.6398 131.64 42.3398C131.64 43.0398 131.883 43.6198 132.368 44.0998ZM140.087 37.6998C139.966 37.8198 139.825 37.8798 139.663 37.8798C139.501 37.8798 139.36 37.8198 139.239 37.6998C139.117 37.5798 139.057 37.4398 139.057 37.2798C139.057 37.1198 139.117 36.9798 139.239 36.8598C139.36 36.7398 139.501 36.6798 139.663 36.6798C139.825 36.6798 139.966 36.7398 140.087 36.8598C140.209 36.9798 140.269 37.1198 140.269 37.2798C140.269 37.4398 140.209 37.5798 140.087 37.6998ZM139.239 45.4798V39.1998H140.067V45.4598H139.239V45.4798ZM147.302 39.1998H148.13V45.2198C148.13 46.1198 147.827 46.8398 147.201 47.3598C146.574 47.8798 145.826 48.1398 144.958 48.1398C143.462 48.1398 142.472 47.6198 141.946 46.6198L142.674 46.1998C143.058 46.9598 143.806 47.3398 144.937 47.3398C145.665 47.3398 146.231 47.1398 146.655 46.7598C147.079 46.3798 147.281 45.8598 147.281 45.2198V44.2398C146.695 45.1598 145.847 45.6198 144.715 45.6198C143.806 45.6198 143.038 45.2998 142.411 44.6598C141.765 44.0198 141.461 43.2398 141.461 42.3198C141.461 41.3998 141.785 40.6198 142.411 39.9798C143.058 39.3398 143.826 39.0198 144.715 39.0198C145.847 39.0198 146.695 39.4798 147.281 40.3998V39.1998H147.302ZM143.017 44.0998C143.502 44.5798 144.089 44.8198 144.796 44.8198C145.503 44.8198 146.089 44.5798 146.574 44.0998C147.059 43.6198 147.302 43.0398 147.302 42.3398C147.302 41.6398 147.059 41.0598 146.574 40.5798C146.089 40.0998 145.503 39.8598 144.796 39.8598C144.089 39.8598 143.502 40.0998 143.017 40.5798C142.532 41.0598 142.29 41.6398 142.29 42.3398C142.31 43.0398 142.553 43.6198 143.017 44.0998ZM150.757 37.6998C150.636 37.8198 150.495 37.8798 150.333 37.8798C150.171 37.8798 150.03 37.8198 149.909 37.6998C149.787 37.5798 149.727 37.4398 149.727 37.2798C149.727 37.1198 149.787 36.9798 149.909 36.8598C150.03 36.7398 150.171 36.6798 150.333 36.6798C150.495 36.6798 150.636 36.7398 150.757 36.8598C150.879 36.9798 150.939 37.1198 150.939 37.2798C150.939 37.4398 150.879 37.5798 150.757 37.6998ZM149.909 45.4798V39.1998H150.737V45.4598H149.909V45.4798ZM155.87 39.9998H154.051V43.7998C154.051 44.1398 154.112 44.3798 154.253 44.5398C154.395 44.6798 154.597 44.7598 154.86 44.7598C155.122 44.7598 155.466 44.7598 155.87 44.7398V45.4598C154.981 45.5998 154.314 45.5398 153.869 45.2798C153.425 45.0198 153.202 44.5198 153.202 43.7998V39.9998H151.869V39.1998H153.202V37.6998L154.031 37.4398V39.1998H155.85V39.9998H155.87ZM162.337 39.1998H163.165V45.4598H162.337V44.2398C161.751 45.1598 160.902 45.6198 159.77 45.6198C158.861 45.6198 158.093 45.2998 157.466 44.6598C156.82 44.0198 156.517 43.2398 156.517 42.3198C156.517 41.3998 156.84 40.6198 157.466 39.9798C158.113 39.3398 158.881 39.0198 159.77 39.0198C160.902 39.0198 161.751 39.4798 162.337 40.3998V39.1998ZM158.073 44.0998C158.558 44.5798 159.144 44.8198 159.851 44.8198C160.558 44.8198 161.144 44.5798 161.629 44.0998C162.114 43.6198 162.357 43.0398 162.357 42.3398C162.357 41.6398 162.114 41.0598 161.629 40.5798C161.144 40.0998 160.558 39.8598 159.851 39.8598C159.144 39.8598 158.558 40.0998 158.073 40.5798C157.588 41.0598 157.345 41.6398 157.345 42.3398C157.345 43.0398 157.588 43.6198 158.073 44.0998ZM164.944 45.4798V36.3198H165.772V45.4798H164.944Z" fill="#d7ddf0"/>
<path fill-rule="evenodd" clip-rule="evenodd" d="M88.0104 13C88.0104 18.7 88.0104 24.38 88.0104 30.08H91.2034V23.46H97.9327V20.3H91.2034V16.16H98.1348V13H88.0104ZM140.289 30.08V26.92H132.893V23.12H139.683V19.96H132.893V16.16H140.289V13H129.7C129.7 18.7 129.7 24.38 129.7 30.08H140.289ZM126.932 30.08V26.92H119.535V23.12H126.325V19.96H119.535V16.16H126.932V13H116.343C116.343 18.7 116.343 24.38 116.343 30.08H126.932ZM114.12 30.08L109.936 23.22C112.079 22.54 113.614 20.56 113.614 18.24C113.614 15.36 111.25 13 108.32 13H100.883C100.883 18.7 100.883 24.38 100.883 30.08H104.076V23.46H106.481L110.523 30.08C111.715 30.08 112.907 30.08 114.12 30.08ZM108.32 20.3H104.076V16.16H108.32C109.472 16.16 110.421 17.08 110.421 18.24C110.401 19.36 109.472 20.3 108.32 20.3Z" fill="#d7ddf0"/>
</svg>
