<svg width="22" height="29" viewBox="0 0 22 29" fill="none" xmlns="http://www.w3.org/2000/svg">
<path fill-rule="evenodd" clip-rule="evenodd" d="M9.65297 0.0619517C7.21511 0.372544 4.96726 1.46239 3.22819 3.17683C1.73246 4.65135 0.726357 6.46961 0.259764 8.5414C-0.291608 10.9896 0.023085 13.2909 1.31585 16.2638C2.84219 19.7736 6.03188 24.1688 9.88896 28.0769C11.0018 29.2045 10.9738 29.1956 11.5853 28.6139C12.1655 28.0618 13.6774 26.4415 14.5335 25.4541C18.8891 20.4305 21.4289 15.8341 21.9183 12.0895C22.4041 8.37143 20.6936 4.43926 17.6031 2.16973C16.1218 1.08197 14.6021 0.43948 12.7483 0.117382C12.0198 -0.00923507 10.4343 -0.0376304 9.65297 0.0619517ZM12.2324 6.0302C14.0979 6.5353 15.4069 7.84393 15.9059 9.70255C16.0629 10.2874 16.0541 11.4723 15.8883 12.0782C15.5513 13.3093 14.7927 14.3634 13.775 15.0143C10.5057 17.1055 6.22379 14.9828 5.97244 11.1464C5.88033 9.74103 6.41209 8.37267 7.4484 7.34794C8.20355 6.60128 9.06228 6.1508 10.1115 5.95096C10.6493 5.84849 11.7074 5.88805 12.2324 6.0302Z" fill="#E16C00"/>
</svg>
