<svg width="59" height="78" viewBox="0 0 59 78" fill="none" xmlns="http://www.w3.org/2000/svg">
<path fill-rule="evenodd" clip-rule="evenodd" d="M25.8875 0.163817C19.3496 0.999203 13.3213 3.93052 8.65743 8.54176C4.64614 12.5077 1.94796 17.3982 0.696639 22.9706C-0.78204 29.5555 0.0619097 35.745 3.52886 43.7411C7.62225 53.1814 16.1764 65.003 26.5204 75.5144C29.5048 78.5472 29.4296 78.5233 31.0696 76.9586C32.6257 75.4738 36.6802 71.1157 38.9761 68.46C50.6572 54.9482 57.4684 42.5856 58.7808 32.5138C60.0837 22.5134 55.4964 11.9373 47.2082 5.83301C43.2358 2.90733 39.1601 1.17924 34.1887 0.312906C32.235 -0.027651 27.9829 -0.104025 25.8875 0.163817ZM32.8051 16.2163C37.8079 17.5749 41.3184 21.0947 42.6567 26.0937C43.0778 27.6668 43.0543 30.8537 42.6095 32.4835C41.7058 35.7947 39.6712 38.6297 36.942 40.3805C28.1743 46.005 16.6911 40.2957 16.017 29.977C15.77 26.1972 17.1961 22.5168 19.9753 19.7606C22.0004 17.7523 24.3034 16.5407 27.1173 16.0032C28.5596 15.7276 31.397 15.834 32.8051 16.2163Z" fill="white" fill-opacity="0.97"/>
</svg>
