<svg width="22" height="22" viewBox="0 0 22 22" fill="none" xmlns="http://www.w3.org/2000/svg">
<path fill-rule="evenodd" clip-rule="evenodd" d="M3.93489 0.0416751C3.52351 0.13871 3.34938 0.279422 2.0827 1.5383C0.750561 2.86224 0.547279 3.09413 0.318593 3.55082C0.0294248 4.12822 -0.0513892 4.68104 0.0298547 5.52509C0.32719 8.61417 1.688 11.2823 4.62172 14.5282C5.20431 15.1727 6.82077 16.79 7.49217 17.4001C10.4808 20.1155 13.0495 21.5011 15.8745 21.9212C16.5859 22.027 17.5058 22.0291 17.8733 21.9257C18.2535 21.8188 18.6975 21.5895 19.0103 21.3387C19.4363 20.997 21.6801 18.7095 21.7752 18.5199C21.9041 18.263 22 17.9054 22 17.682C22 17.4293 21.894 17.0199 21.7774 16.8226C21.7276 16.7384 20.8144 15.7919 19.7479 14.7193C17.6456 12.6049 17.6074 12.5732 17.0452 12.4695C16.8252 12.4289 16.7072 12.4293 16.4933 12.4714C15.995 12.5696 15.8631 12.6679 14.7568 13.7656C13.6516 14.8623 13.5564 14.9302 13.2161 14.8663C13.0325 14.8318 11.9748 14.1355 11.3179 13.6167C9.90799 12.5029 8.67476 11.181 7.69777 9.73604C7.10933 8.86578 7.04137 8.6813 7.19578 8.37311C7.23373 8.29738 7.71527 7.78036 8.26587 7.22418C9.34681 6.13226 9.44524 5.99826 9.53848 5.49179C9.57906 5.27125 9.57863 5.15322 9.53655 4.93905C9.43114 4.40263 9.40583 4.37225 7.32676 2.28476C6.25924 1.21298 5.30538 0.288545 5.20702 0.230496C4.85922 0.0252372 4.33462 -0.0526492 3.93489 0.0416751ZM15.8786 0.322281C13.3143 0.785813 11.4997 3.06001 11.6098 5.67222C11.665 6.97976 12.1328 8.0811 13.0345 9.02594C13.9566 9.99225 15.1066 10.5365 16.4565 10.6457C16.8966 10.6813 17.0947 10.6182 17.2274 10.4003C17.3312 10.23 17.3369 10.1031 17.2493 9.91823C17.1536 9.71629 17 9.64881 16.5622 9.61641C15.7897 9.55922 14.9737 9.27087 14.3763 8.84392C13.7798 8.41761 13.2048 7.68418 12.9331 7.00313C12.7026 6.42531 12.6537 6.14913 12.6562 5.43839C12.6587 4.72639 12.7179 4.42298 12.9751 3.80466C13.4507 2.66111 14.5059 1.74799 15.7455 1.40744C16.2454 1.27009 17.352 1.27009 17.8518 1.40744C18.5522 1.59983 19.2341 1.99641 19.7463 2.50917C20.8894 3.65341 21.267 5.36011 20.7133 6.87916C20.4868 7.50027 20.0845 8.02753 19.7784 8.10443C19.5335 8.16596 19.5306 8.14767 19.5051 6.4374C19.4834 4.98441 19.4755 4.86005 19.388 4.59928C18.962 3.3296 17.6331 2.53025 16.337 2.764C15.2892 2.95295 14.4171 3.75341 14.1562 4.76572C14.0669 5.11204 14.066 5.76142 14.1543 6.10244C14.4123 7.09922 15.1447 7.83195 16.1371 8.08601C16.8696 8.27354 17.7491 8.11802 18.3486 7.69498L18.4585 7.61744L18.5078 7.95623C18.5682 8.37096 18.7137 8.67016 18.9558 8.87765C19.4849 9.33094 20.2511 9.20422 20.8824 8.55896C21.7349 7.68763 22.156 6.13334 21.9357 4.67067C21.6031 2.46119 19.8863 0.704054 17.6848 0.319743C17.2143 0.237596 16.3401 0.238844 15.8786 0.322281ZM17.4278 3.87743C17.7682 4.00781 18.1339 4.35611 18.3132 4.72063C18.4448 4.98832 18.4536 5.03467 18.4536 5.459C18.4536 5.86633 18.4417 5.936 18.3349 6.15374C18.1511 6.52828 17.9125 6.76981 17.5483 6.94999C16.6341 7.40224 15.5657 6.98299 15.2078 6.03144C15.1292 5.8227 15.1169 5.71684 15.1314 5.37384C15.1459 5.0289 15.1684 4.92511 15.2751 4.70952C15.5012 4.25288 15.9708 3.88475 16.4567 3.78324C16.7256 3.72708 17.1404 3.76731 17.4278 3.87743Z" fill="#E16C00"/>
</svg>
