<svg width="22" height="22" viewBox="0 0 22 22" fill="none" xmlns="http://www.w3.org/2000/svg">
<path fill-rule="evenodd" clip-rule="evenodd" d="M10.1322 0.0248707C6.42229 0.351387 3.20081 2.42007 1.38966 5.63893C-0.29125 8.62626 -0.456353 12.2671 0.943925 15.4694C1.86855 17.584 3.56934 19.4492 5.62937 20.6078C8.7569 22.3667 12.6042 22.4673 15.8564 20.8753C18.1231 19.7658 20.0545 17.762 21.0482 15.4892C22.7137 11.6802 22.1698 7.41201 19.6022 4.14071C18.9985 3.37147 17.7951 2.28337 16.9567 1.74856C15.5662 0.861568 13.9392 0.272479 12.3367 0.0758185C11.7571 0.00469808 10.6517 -0.0208227 10.1322 0.0248707ZM11.5335 4.15314C11.6278 4.21699 11.7627 4.35186 11.8332 4.45287L11.9614 4.63648L11.9742 7.59478L11.987 10.5531L13.4335 12.0087C15.0128 13.5978 15.0137 13.599 14.9776 14.0981C14.9545 14.4175 14.8221 14.6438 14.5452 14.8372C14.3839 14.9498 14.3177 14.9655 14.0018 14.9655C13.6862 14.9655 13.6192 14.9497 13.457 14.8372C13.3552 14.7667 12.5625 13.9962 11.6954 13.1249C10.3922 11.8157 10.1092 11.5082 10.0644 11.3531C10.025 11.217 10.0141 10.2689 10.0243 7.89733L10.0384 4.62912L10.1791 4.42932C10.39 4.12987 10.6672 4.00001 11.0519 4.02051C11.2858 4.03295 11.4041 4.06555 11.5335 4.15314Z" fill="#E16C00"/>
</svg>
