<svg width="51" height="64" viewBox="0 0 51 64" fill="none" xmlns="http://www.w3.org/2000/svg">
  <path
    d="M6 15.7899C6 15.3268 6.31791 14.9243 6.76838 14.8171L16.5 12.5L25.5 7L34.5 12.5L44.2316 14.8171C44.6821 14.9243 45 15.3268 45 15.7899V39.4363C45 41.1037 44.479 42.7294 43.5099 44.0862L40 49L25.5 58L11 49L7.49013 44.0862C6.52099 42.7294 6 41.1037 6 39.4363V15.7899Z"
    fill="#BCC0CC" />
  <path fill-rule="evenodd" clip-rule="evenodd"
    d="M35.5996 20.5141C34.5702 20.8532 34.161 21.1779 31.7371 23.5784C29.022 26.2674 28.9314 26.4133 29.5787 27.0579C30.1699 27.6467 30.4435 27.4765 33.0246 24.914C34.494 23.4554 35.5201 22.5364 35.8154 22.4149C37.149 21.8657 38.7873 22.4744 39.4552 23.767C39.8248 24.4823 39.8294 25.6106 39.4652 26.2878C39.141 26.8908 23.4622 42.5034 22.9131 42.7698C22.245 43.0941 21.6297 43.1392 20.8652 42.9197C20.1741 42.7212 20.0089 42.5747 16.0265 38.6286C13.7586 36.3816 11.7716 34.318 11.6109 34.0428C10.5388 32.2083 11.8773 29.831 13.9934 29.8113C15.2293 29.7998 15.4137 29.9288 18.4621 32.9357C21.0438 35.4823 21.3345 35.7315 21.7249 35.7315C22.1166 35.7315 22.4052 35.4809 25.0769 32.8203C27.6829 30.2253 28.0003 29.8654 28.0003 29.5056C28.0003 28.9808 27.6189 28.6018 27.0908 28.6018C26.7294 28.6018 26.4058 28.8782 24.2046 31.068L21.7257 33.5344L19.3048 31.1467C16.6872 28.565 16.1765 28.205 14.8242 27.9881C11.6767 27.4833 8.84394 30.2647 9.38569 33.328C9.65249 34.8359 9.77194 34.9857 14.4134 39.634C19.0769 44.3043 19.4299 44.588 20.9034 44.8513C21.8402 45.0185 22.9033 44.8639 23.786 44.4318C24.2849 44.1875 26.1947 42.3503 32.7273 35.8299C40.622 27.9501 41.0485 27.5013 41.322 26.7881C41.7131 25.7678 41.7137 24.3277 41.3235 23.3174C40.9404 22.3258 40.0021 21.333 38.9692 20.8267C38.2885 20.493 37.978 20.4189 37.1264 20.3869C36.5089 20.3638 35.9025 20.4143 35.5996 20.5141Z"
    fill="white" fill-opacity="0.97" />
  <path fill-rule="evenodd" clip-rule="evenodd"
    d="M24.3328 0.148672C23.8983 0.287388 23.418 0.637617 22.5114 1.47667C17.9391 5.70894 11.9381 8.08975 4.26952 8.71366C2.29344 8.87439 1.61403 9.11142 0.891274 9.8923C-0.0883483 10.9506 -0.0242879 9.7292 0.0216849 26.4754C0.062759 41.4193 0.0627588 41.423 0.342992 42.6436C1.52635 47.7983 4.3842 52.2821 8.40519 55.2929C9.56368 56.1604 20.8217 62.7283 22.1616 63.3183C23.0091 63.6916 24.5144 64 25.4881 64C26.5171 64 28.0112 63.6793 28.9366 63.2599C30.0781 62.7424 40.9772 56.4462 42.1313 55.6375C43.7574 54.498 46.2566 51.9276 47.3782 50.241C48.9509 47.8757 49.9973 45.4312 50.6301 42.6436C50.8973 41.4664 50.9089 41.1333 50.9537 33.3379L51 25.2532L50.6624 24.9887C50.2249 24.646 49.9512 24.655 49.5178 25.026L49.1654 25.3278L49.0935 33.3126L49.0218 41.2976L48.6966 42.611C47.8186 46.1568 46.2339 49.1085 43.8599 51.6198C42.8153 52.7247 41.3061 53.9866 40.2225 54.6608C37.9953 56.0465 28.2185 61.5517 27.5926 61.7724C26.4873 62.1622 24.4969 62.1652 23.4021 61.7785C22.4504 61.4426 10.9508 54.8498 9.6614 53.901C8.18877 52.8173 6.19586 50.7337 5.16788 49.2028C3.76294 47.1104 2.92576 45.2028 2.27511 42.611L1.94551 41.2976L1.90557 26.5706C1.86173 10.337 1.81601 11.3205 2.63435 10.8991C2.8558 10.785 3.62653 10.6529 4.48494 10.5818C12.4838 9.91882 18.8793 7.38416 23.6324 2.99316C25.2772 1.47366 25.6925 1.46829 27.2937 2.9455C32.1038 7.38316 38.4806 9.9197 46.4913 10.582C48.0412 10.7101 48.606 10.8973 48.879 11.373C48.9992 11.5825 49.0556 12.926 49.1026 16.6989L49.1654 21.7447L49.4619 21.9836C49.8464 22.2936 50.4181 22.2886 50.7355 21.9725C50.9786 21.7303 50.9867 21.5563 50.9854 16.5627L50.9842 11.403L50.6869 10.7776C50.0193 9.37371 49.125 8.90979 46.7126 8.71566C39.1354 8.10588 32.8563 5.62001 28.503 1.50669C27.9847 1.01699 27.3079 0.488895 26.9991 0.333043C26.2867 -0.0261925 25.1311 -0.10612 24.3328 0.148672ZM24.4623 6.62066C24.2089 6.77439 23.3289 7.35602 22.5067 7.91313C21.6844 8.47025 20.5303 9.18747 19.9419 9.5068C16.5953 11.3235 12.1155 12.7671 7.84008 13.4067C6.20478 13.6514 5.62359 13.9553 5.25794 14.7572C5.04378 15.227 5.01916 15.6077 5.01664 18.4797C5.01388 21.6635 5.01526 21.68 5.30454 21.9507C5.71591 22.3355 6.3084 22.3099 6.63762 21.893C6.88482 21.5801 6.89801 21.4096 6.89801 18.5182V15.473L7.18063 15.4154C7.33613 15.3837 8.19806 15.2353 9.09617 15.0855C13.1244 14.4138 16.4097 13.3561 19.9613 11.5873C21.5396 10.8013 23.8119 9.40786 24.8782 8.57219C25.1299 8.37494 25.3958 8.21346 25.469 8.21346C25.5421 8.21346 26.0993 8.56931 26.707 9.00422C30.9796 12.0621 36.1314 14.127 41.8801 15.0855C42.7782 15.2353 43.6401 15.3837 43.7956 15.4154L44.0782 15.473V27.4069C44.0782 35.2171 44.0316 39.6741 43.9436 40.3052C43.3919 44.2542 41.0421 48.0339 37.8118 50.1679C36.5216 51.0204 26.4863 56.768 25.9721 56.9491C25.6724 57.0546 25.3852 57.0736 25.1417 57.0042C24.7362 56.8883 14.5137 51.051 13.1644 50.1648C9.9444 48.0499 7.58446 44.2551 7.03266 40.3052C6.95014 39.7137 6.89801 36.6566 6.89801 32.3996C6.89801 28.1952 6.85041 25.3697 6.77718 25.2335C6.4678 24.6579 5.44736 24.6517 5.13999 25.2236C5.0395 25.4106 5.01338 27.6404 5.04767 33.0785C5.08987 39.7611 5.12203 40.7848 5.31559 41.6103C5.82795 43.795 6.6233 45.6579 7.799 47.4266C8.58519 48.6093 10.645 50.7178 11.7968 51.5187C12.2458 51.831 15.2207 53.5852 18.4078 55.417C22.805 57.9443 24.3574 58.7767 24.8452 58.8689C26.1016 59.106 26.3574 58.9935 32.2633 55.6024C35.2728 53.8745 38.2154 52.1475 38.8026 51.7647C40.146 50.8889 42.2971 48.7565 43.1787 47.4266C44.3362 45.6809 45.1479 43.7808 45.6635 41.6103C45.8676 40.751 45.8899 39.6078 45.9288 28.0047C45.9703 15.6735 45.9649 15.3224 45.7267 14.7863C45.334 13.9023 44.8403 13.6699 42.5616 13.296C37.2128 12.4186 32.5454 10.6524 28.6689 8.03884C27.7399 7.41256 26.7713 6.77439 26.5166 6.62066C25.9011 6.24954 25.0742 6.24954 24.4623 6.62066Z"
    fill="#BCC0CC" />
</svg>