<svg width="64" height="64" viewBox="0 0 64 64" fill="none" xmlns="http://www.w3.org/2000/svg">
  <path d="M3 18H61V46.5185L50.85 56.5H5C3.89543 56.5 3 55.6046 3 54.5V18Z" fill="#BCC0CC" />
  <path fill-rule="evenodd" clip-rule="evenodd"
    d="M14.6312 0.192722C12.9018 0.812003 12.1625 1.88557 12.1814 3.7498L12.1912 4.71434L7.59847 4.75127C3.12373 4.78732 2.99122 4.79559 2.43275 5.07061C1.50143 5.52928 0.860681 6.16509 0.412305 7.07555L0 7.91265V34.3915V60.8704L0.272908 61.4609C0.655656 62.2889 1.59587 63.2464 2.42661 63.6542L3.13112 64H32H60.8689L61.5735 63.654C62.4046 63.2459 63.3443 62.2889 63.7271 61.4609L64 60.8704V34.3915V7.91265L63.5877 7.07555C63.1394 6.16547 62.5132 5.54381 61.5748 5.07712C61.0049 4.79371 60.9093 4.7877 56.4024 4.75127L51.8108 4.71434L51.8203 3.7498C51.8317 2.60813 51.5293 1.79419 50.8253 1.07188C49.6073 -0.177696 47.2697 -0.363342 45.7143 0.66604C44.6488 1.37107 44.2288 2.25386 44.244 3.75556L44.2539 4.72573H41.7201C39.3477 4.72573 39.1688 4.74188 38.9136 4.9796C38.5478 5.32023 38.4545 5.7595 38.658 6.18374C38.9511 6.79464 39.23 6.84997 42.0271 6.85197L44.6021 6.85385L44.8149 8.48837C45.0534 10.3209 45.2574 10.8379 46.0095 11.5172C47.0956 12.4979 48.967 12.4979 50.0531 11.5172C50.8013 10.8414 51.0071 10.3222 51.2522 8.48999L51.4712 6.85385L55.9196 6.85585C60.2909 6.85798 60.3764 6.86286 60.8595 7.13751C61.166 7.31189 61.4608 7.62498 61.6423 7.96886C61.9268 8.50802 61.9335 8.5999 61.9335 12.006V15.4915H32H2.06654V12.006C2.06654 8.5999 2.07317 8.50802 2.35773 7.96886C2.53921 7.62498 2.83404 7.31189 3.14051 7.13751C3.62358 6.86274 3.70899 6.85798 8.08579 6.85585L12.5395 6.85385L12.7523 8.48837C12.9907 10.3209 13.1948 10.8379 13.9469 11.5172C14.7007 12.1978 15.8655 12.4204 17.0108 12.1025C17.5951 11.9403 18.4082 11.2283 18.7308 10.5961C19.0011 10.0667 19.7494 4.96371 19.757 3.59908C19.7682 1.5641 18.3589 0.153665 16.1775 0.0167141C15.5073 -0.0252223 15.1155 0.019343 14.6312 0.192722ZM30.6625 0.192722C28.9311 0.812754 28.1937 1.8852 28.2127 3.75556L28.2226 4.72573H25.5342C22.8467 4.72573 22.8456 4.72586 22.5384 5.03306C22.1166 5.45455 22.1233 6.0831 22.5538 6.48781C22.8733 6.788 22.9074 6.79163 25.7194 6.82894L28.5618 6.86649L28.7798 8.49625C29.0242 10.3218 29.2305 10.8421 29.9782 11.5172C30.732 12.1978 31.8968 12.4204 33.0422 12.1025C33.6264 11.9403 34.4395 11.2283 34.7621 10.5961C35.0324 10.0667 35.7808 4.96371 35.7883 3.59908C35.7995 1.5641 34.3902 0.153665 32.2088 0.0167141C31.5386 -0.0252223 31.1468 0.019343 30.6625 0.192722ZM16.8007 2.30156C17.3436 2.55906 17.5976 3.04252 17.5941 3.81189C17.5926 4.14238 17.429 5.59363 17.2304 7.03699C16.9122 9.35125 16.8369 9.68762 16.593 9.88491C16.2396 10.171 15.6978 10.171 15.3443 9.88491C15.1005 9.68762 15.0252 9.35125 14.707 7.03699C14.2838 3.96124 14.2571 3.21677 14.5537 2.76424C14.9679 2.13269 15.9975 1.92063 16.8007 2.30156ZM32.7925 2.26763C33.7469 2.66622 33.7954 3.15819 33.2617 7.03699C32.9435 9.35125 32.8682 9.68762 32.6243 9.88491C32.2709 10.171 31.7291 10.171 31.3757 9.88491C31.1318 9.68762 31.0565 9.35125 30.7383 7.03699C30.3277 4.05287 30.2968 3.35598 30.5532 2.8605C30.8993 2.1914 31.9463 1.91412 32.7925 2.26763ZM48.8239 2.26763C49.7782 2.66622 49.8267 3.15819 49.293 7.03699C48.9748 9.35125 48.8995 9.68762 48.6557 9.88491C48.3022 10.171 47.7604 10.171 47.407 9.88491C47.1631 9.68762 47.0878 9.35125 46.7696 7.03699C46.359 4.05287 46.3281 3.35598 46.5845 2.8605C46.9307 2.1914 47.9776 1.91412 48.8239 2.26763ZM61.9335 32.0716V46.5235L58.0822 46.5616L54.2309 46.5995L53.5183 46.9493C51.8697 47.7585 51.0372 49.2659 51.0372 51.4419C51.0372 52.5163 51.0531 52.5809 51.4033 52.9309C51.8704 53.3979 52.428 53.4203 52.8589 52.9895C53.1365 52.7121 53.1663 52.5803 53.1663 51.6313C53.1663 50.4264 53.3144 49.8791 53.7783 49.3695C54.3702 48.7191 54.6665 48.6651 57.6392 48.6651H60.3665L55.9843 53.0465L51.6022 57.4279L27.8049 57.4224C2.49926 57.4165 3.45988 57.4388 2.79208 56.8452C2.64905 56.7181 2.42862 56.3889 2.30212 56.1135C2.08207 55.6346 2.07192 54.7816 2.06929 36.6162L2.06654 17.6196H32H61.9335V32.0716ZM20.8436 33.7586L20.4775 34.1245V37.6489V41.1733L20.8436 41.5392L21.2097 41.9052H24.7818H28.3539L28.7053 41.6031L29.0568 41.3009V37.6489V33.997L28.7053 33.6948L28.3539 33.3927H24.7818H21.2097L20.8436 33.7586ZM35.2947 33.6948L34.9432 33.997V37.6489V41.3009L35.2947 41.6031L35.6461 41.9052H39.2182H42.7903L43.1619 41.5337L43.5335 41.1623L43.4967 37.5795L43.4599 33.9966L43.1084 33.6946L42.757 33.3927H39.2016H35.6461L35.2947 33.6948ZM49.7165 33.7L49.409 34.0072V37.6489V41.2906L49.7165 41.5978L50.0238 41.9052L53.6304 41.9012C56.2678 41.8983 57.2901 41.8562 57.4356 41.7447C57.8903 41.3957 57.9256 41.1005 57.9256 37.6489C57.9256 34.1974 57.8903 33.9022 57.4356 33.5532C57.2901 33.4416 56.2678 33.3996 53.6304 33.3967L50.0238 33.3927L49.7165 33.7ZM26.865 37.6489V39.777H24.7358H22.6067V37.6489V35.5208H24.7358H26.865V37.6489ZM41.3933 37.6489V39.777H39.2642H37.135V37.6489V35.5208H39.2642H41.3933V37.6489ZM55.7965 37.6489V39.777H53.6673H51.5382V37.6489V35.5208H53.6673H55.7965V37.6489ZM20.8916 46.0878L20.5401 46.3897L20.5029 49.8112C20.4824 51.693 20.4972 53.3583 20.5357 53.5117C20.5743 53.6651 20.7285 53.9049 20.8784 54.0444C21.1393 54.2874 21.3075 54.2983 24.8002 54.2983H28.4494L28.7532 53.9755C29.0559 53.6536 29.0569 53.6431 29.0961 50.439C29.1177 48.6716 29.1 47.036 29.0565 46.8046C29.013 46.5731 28.843 46.2493 28.6784 46.0848L28.3793 45.7858H24.8111H21.243L20.8916 46.0878ZM35.3216 46.0848C35.157 46.2493 34.987 46.5731 34.9435 46.8046C34.9 47.036 34.8823 48.6716 34.9039 50.439C34.9431 53.6431 34.9441 53.6536 35.2468 53.9755L35.5506 54.2983H39.1998C42.6925 54.2983 42.8607 54.2874 43.1216 54.0444C43.2715 53.9049 43.4257 53.6651 43.4643 53.5117C43.5028 53.3583 43.5176 51.693 43.4971 49.8112L43.4599 46.3897L43.1084 46.0878L42.757 45.7858H39.1889H35.6207L35.3216 46.0848ZM26.865 50.0421V52.1702H24.7358H22.6067V50.0421V47.914H24.7358H26.865V50.0421ZM41.3933 50.0421V52.1702H39.2642H37.135V50.0421V47.914H39.2642H41.3933V50.0421ZM61.7157 60.6619C61.5944 60.9055 61.2786 61.2773 61.0138 61.4883L60.5325 61.8719L32.458 61.9084C17.0171 61.9286 4.14171 61.9107 3.84601 61.8686C3.21591 61.7793 2.49124 61.2059 2.23574 60.5948C2.14268 60.3721 2.06654 59.9096 2.06654 59.567V58.9441L2.66145 59.2188L3.25636 59.4934H27.898H52.5397L57.2052 54.8301L61.8708 50.1668L61.9035 55.1929C61.9335 59.7812 61.9171 60.2577 61.7157 60.6619Z"
    fill="#BCC0CC" />
  <path fill-rule="evenodd" clip-rule="evenodd"
    d="M8.43245 22.2386L8.13675 22.4778L8.10005 26.1235L8.06323 29.7693L8.43483 30.1406L8.80631 30.512H12.2664C15.8831 30.512 16.3169 30.4539 16.513 29.943C16.5557 29.8316 16.5908 28.137 16.5908 26.1773V22.614L16.2833 22.3068L15.9759 21.9995H12.352C8.97138 21.9995 8.70824 22.0155 8.43245 22.2386ZM22.8782 22.2534C22.7283 22.393 22.5741 22.6327 22.5355 22.7862C22.4969 22.9395 22.4821 24.6048 22.5027 26.4866L22.5399 29.9081L22.8913 30.21L23.2428 30.512H26.8108H30.3791L30.6782 30.213C30.8427 30.0485 31.0128 29.7247 31.0563 29.4932C31.0997 29.2618 31.1175 27.6262 31.0958 25.8588C31.0566 22.6547 31.0556 22.6442 30.7529 22.3224L30.4492 21.9995H26.8C23.3073 21.9995 23.1391 22.0104 22.8782 22.2534ZM37.2466 22.3224C36.9439 22.6442 36.9429 22.6547 36.9037 25.8588C36.882 27.6262 36.8998 29.2618 36.9433 29.4932C36.9867 29.7247 37.1568 30.0485 37.3214 30.213L37.6205 30.512H41.1887H44.7568L45.1082 30.21L45.4596 29.9081L45.4968 26.4866C45.5174 24.6048 45.5026 22.9395 45.464 22.7862C45.4255 22.6327 45.2713 22.393 45.1214 22.2534C44.8605 22.0104 44.6923 21.9995 41.1996 21.9995H37.5503L37.2466 22.3224ZM51.7162 22.3068L51.4088 22.614V26.1773C51.4088 28.137 51.4438 29.8316 51.4865 29.943C51.6827 30.4539 52.1164 30.512 55.7331 30.512H59.1932L59.5593 30.1461L59.9254 29.7802V26.3217C59.9254 22.7068 59.8673 22.2733 59.3562 22.0773C59.2447 22.0346 57.5493 21.9995 55.5886 21.9995H52.0236L51.7162 22.3068ZM14.4616 26.2557V28.3839H12.3324H10.2033V26.2557V24.1276H12.3324H14.4616V26.2557ZM28.8647 26.2557V28.3839H26.7356H24.6064V26.2557V24.1276H26.7356H28.8647V26.2557ZM43.3931 26.2557V28.3839H41.264H39.1348V26.2557V24.1276H41.264H43.3931V26.2557ZM57.7962 26.2557V28.3839H55.6671H53.5379V26.2557V24.1276H55.6671H57.7962V26.2557ZM8.56421 34.5531C8.10945 34.9022 8.07413 35.1973 8.07413 38.6489C8.07413 42.1004 8.10945 42.3956 8.56421 42.7446C8.70962 42.8562 9.73199 42.8982 12.3694 42.9011L15.9759 42.9051L16.2833 42.5978L16.5908 42.2906V38.6489V35.0072L16.2833 34.7L15.9759 34.3927L12.3694 34.3967C9.73199 34.3995 8.70962 34.4416 8.56421 34.5531ZM14.4616 38.6489V40.777H12.3324H10.2033V38.6489V36.5208H12.3324H14.4616V38.6489ZM8.43483 47.1572L8.06323 47.5285L8.10005 51.1742L8.13675 54.8199L8.43245 55.0592C8.70824 55.2822 8.97138 55.2983 12.352 55.2983H15.9759L16.2833 54.9909L16.5908 54.6837V51.1205C16.5908 49.1608 16.5557 47.4662 16.513 47.3548C16.3169 46.8439 15.8831 46.7858 12.2664 46.7858H8.80631L8.43483 47.1572ZM14.4616 51.042V53.1701H12.3324H10.2033V51.042V48.9139H12.3324H14.4616V51.042Z"
    fill="white" fill-opacity="0.97" />
</svg>