<svg width="58" height="64" viewBox="0 0 58 64" fill="none" xmlns="http://www.w3.org/2000/svg">
  <path
    d="M3 32C3 31.4477 3.44772 31 4 31H49.9501C50.5215 31 50.9767 31.478 50.9489 32.0487L50.5664 39.8925C50.5404 40.4252 50.1009 40.8438 49.5676 40.8438H42.48C40.8231 40.8438 39.48 42.1869 39.48 43.8438V49.6872C39.48 51.2945 40.7468 52.6163 42.3527 52.6845L49.6185 52.993C50.1307 53.0147 50.5434 53.4202 50.5743 53.9319L50.9361 59.9399C50.9708 60.5148 50.5139 61 49.938 61H4C3.44771 61 3 60.5523 3 60V32Z"
    fill="#BCC0CC" />
  <path fill-rule="evenodd" clip-rule="evenodd"
    d="M31.3953 0.108772C30.529 0.370131 29.7519 1.0219 29.2982 1.86775C29.0748 2.2843 29.0618 2.87004 29.0294 13.9665L28.9953 25.6276H30.0687H31.1421L31.1745 17.0431L31.2069 8.45849L31.9635 8.25003C33.6346 7.78946 35.0262 6.87221 36.0103 5.58205C36.6817 4.70193 37.0237 4.01314 37.3268 2.93069L37.537 2.18038L39.7555 2.14624L41.974 2.1121L42.1062 2.58393C42.1788 2.84341 42.2385 3.11952 42.2389 3.19756C42.2393 3.27559 42.4765 3.80856 42.7659 4.38192C43.7225 6.27759 45.7008 7.85424 47.6655 8.28692L48.355 8.43886L48.3874 17.0332L48.4198 25.6276H49.4944H50.569L50.5338 14.0291C50.4944 1.11669 50.5598 2.04508 49.6183 1.01152C49.3208 0.685012 48.9085 0.411398 48.4666 0.247455C47.7985 -0.000398234 47.5396 -0.00765124 39.7446 0.00272807C35.3264 0.00860551 31.5691 0.0563754 31.3953 0.108772ZM35.2496 2.46175C34.8583 4.09168 33.1341 5.80176 31.4906 6.1898L31.1439 6.27171L31.1458 4.66366C31.1486 2.21665 31.2435 2.12248 33.7108 2.11973L35.3322 2.11786L35.2496 2.46175ZM47.7801 2.30168C48.2878 2.56192 48.418 3.0665 48.418 4.77258V6.26445L48.0082 6.17654C46.4875 5.85053 45.0235 4.49409 44.4035 2.83691L44.1345 2.11786H45.7782C46.9775 2.11786 47.5188 2.1675 47.7801 2.30168ZM18.3372 6.59697C17.3503 6.93536 16.7046 7.52085 16.3251 8.4216C16.1677 8.79526 16.1393 10.1442 16.1393 17.2451V25.6276H17.2111H18.2829V20.2465C18.2829 16.049 18.3175 14.8554 18.4405 14.8203C20.5265 14.2233 21.4214 13.7417 22.5556 12.6063C23.396 11.765 24.2312 10.2561 24.4676 9.15203L24.6082 8.49551H25.7325H26.8569V7.43257V6.36962L22.9166 6.37375C19.4962 6.37725 18.892 6.40676 18.3372 6.59697ZM22.3802 8.77687C21.8775 10.5339 20.242 12.1867 18.6296 12.5674L18.2829 12.6494V10.9069C18.2829 9.25907 18.2982 9.1504 18.5666 8.90843C18.9825 8.53302 19.0778 8.51614 20.8446 8.50539L22.4608 8.49551L22.3802 8.77687ZM39.0244 10.7024C36.106 11.134 33.8234 13.3389 33.3931 16.1422C32.7392 20.4011 36.701 24.1864 40.9195 23.3332C45.1277 22.4821 47.3988 18.0456 45.5354 14.3163C44.7052 12.655 43.2351 11.4085 41.5462 10.9339C40.8319 10.7332 39.5884 10.619 39.0244 10.7024ZM5.80576 12.883C4.5658 13.1261 3.4339 14.2622 3.23355 15.4649C3.1903 15.724 3.15437 18.1168 3.15361 20.7819L3.15222 25.6276H4.22397H5.29573V23.4416V21.2556L5.64247 21.1822C8.65548 20.5448 10.8279 18.4383 11.6005 15.4046L11.736 14.8732H12.871H14.0061L13.9694 13.8415L13.9328 12.8098L10.1501 12.7913C8.06968 12.7812 6.11467 12.8224 5.80576 12.883ZM40.6566 12.9379C41.8451 13.1289 43.0474 14.0687 43.6124 15.2483C43.8918 15.8317 43.9419 16.1069 43.9419 17.0616C43.9419 18.0162 43.8918 18.2915 43.6124 18.8748C43.1798 19.7781 42.4857 20.4488 41.5101 20.9067C39.5226 21.8393 36.9527 20.9777 35.9587 19.0454C35.3643 17.8899 35.3634 16.235 35.9566 15.0819C36.2879 14.4377 37.1853 13.5856 37.8872 13.2486C38.4744 12.9667 39.4705 12.7555 39.907 12.8204C40.0457 12.8411 40.383 12.894 40.6566 12.9379ZM9.41025 15.2597C9.16223 16.4896 7.9224 17.9793 6.616 18.6172C5.29623 19.2615 5.29573 19.2611 5.29573 17.4952C5.29573 15.0141 5.40946 14.9039 7.99087 14.8844L9.48817 14.8732L9.41025 15.2597ZM25.1281 19.4419C22.663 20.1006 20.4353 22.81 20.4279 25.1587L20.4264 25.6276H21.4817H22.5371L22.6015 25.0601C22.692 24.2639 23.3696 22.9663 23.9539 22.4703C24.6366 21.8908 25.4669 21.5043 26.2189 21.416L26.8569 21.341V20.2955V19.25L26.321 19.2582C26.0262 19.2627 25.4894 19.3454 25.1281 19.4419Z"
    fill="#BCC0CC" />
  <path fill-rule="evenodd" clip-rule="evenodd"
    d="M2.09647 27.9373C1.37235 28.1934 0.736988 28.761 0.346744 29.5009L0 30.1582V45.876V61.5937L0.331991 62.2543C0.707357 63.0016 1.52693 63.6716 2.33264 63.8902C2.69174 63.9876 9.82772 64.0168 27.109 63.9916C50.8254 63.957 51.3923 63.9508 51.8732 63.714C52.4563 63.4272 53.1176 62.7979 53.4279 62.2348C53.6261 61.8751 53.6549 61.3657 53.6884 57.6275L53.7261 53.4245L54.6551 53.3549C55.1661 53.3166 55.83 53.1767 56.1305 53.044C56.8233 52.7381 57.6891 51.8088 57.8644 51.1828C57.9516 50.8714 57.9996 48.585 58 44.7255C58.0006 39.7897 57.969 38.6749 57.818 38.3166C57.2868 37.0556 56.2347 36.3698 54.6957 36.2815L53.7137 36.2251V33.202C53.7137 30.2034 53.7111 30.1736 53.3885 29.5317C53.2098 29.1758 52.8461 28.7139 52.5805 28.5052C51.5545 27.6993 53.416 27.7532 26.8095 27.7592C6.53971 27.7638 2.50513 27.7929 2.09647 27.9373ZM50.9796 30.025C51.5652 30.3344 51.562 30.3043 51.5662 35.5299L51.5702 40.4926L46.8734 40.532L42.1766 40.5715L41.4831 40.9572C40.6373 41.4277 40.045 42.2375 39.8437 43.1986C39.7499 43.6471 39.7141 45.0913 39.7405 47.3647L39.7809 50.8444L40.162 51.5854C40.6117 52.4597 41.385 53.044 42.3699 53.2536C42.7585 53.3362 44.6847 53.3894 47.2894 53.3894H51.5702L51.5662 57.2972C51.562 61.4044 51.557 61.4425 50.9796 61.7475C50.5826 61.9572 3.13116 61.9572 2.7341 61.7475C2.58267 61.6674 2.38963 61.5126 2.30515 61.4036C2.18638 61.2501 2.15057 57.723 2.14754 45.849L2.14351 30.493L2.47714 30.1862L2.81077 29.8796H26.7575C44.7216 29.8796 50.773 29.916 50.9796 30.025ZM55.1767 38.5131C55.6956 38.7088 55.8488 38.9979 55.8532 39.79L55.8572 40.509H54.7855H53.7137V39.4461V38.3831H54.2729C54.5805 38.3831 54.9872 38.4417 55.1767 38.5131ZM55.8572 46.6148V50.5946L55.5318 50.8978L55.2065 51.201H48.9151H42.6236L42.2741 50.8544L41.9245 50.5079L41.8837 47.2279C41.8565 45.0308 41.8903 43.79 41.9862 43.4696C42.2364 42.6339 42.1348 42.6453 49.3952 42.6398L55.8572 42.6349V46.6148ZM45.7038 44.9042C44.3789 45.1922 43.7013 46.7822 44.3876 47.9931C45.3103 49.6214 47.8818 49.2384 48.274 47.4143C48.6137 45.8349 47.3044 44.5562 45.7038 44.9042Z"
    fill="#BCC0CC" />
</svg>