<svg width="160" height="49" viewBox="0 0 160 49" fill="none" xmlns="http://www.w3.org/2000/svg">
<mask id="mask0_1_29" style="mask-type:luminance" maskUnits="userSpaceOnUse" x="0" y="12" width="74" height="37">
<path d="M73.823 12H0V48.8212H73.823V12Z" fill="white"/>
</mask>
<g mask="url(#mask0_1_29)">
<path d="M60.1195 29.566L46.4152 48.8207H21.4046L36.9184 27.0297L47.6146 11.9995L55.1686 22.6165C55.1743 22.6286 55.187 22.6412 55.1927 22.6532L55.8889 23.6274L60.1195 29.566Z" fill="url(#paint0_linear_1_29)"/>
<path d="M73.823 48.8207H50.8762C50.8767 48.8159 50.8789 48.8114 50.8825 48.8081H50.8883L62.3344 32.7132H62.3407C62.3441 32.71 62.3464 32.7058 62.3464 32.7012L73.823 48.8207Z" fill="url(#paint1_linear_1_29)"/>
<path d="M36.9174 27.0302L21.4041 48.8207H0.000411987L26.2178 12L29.8441 17.0968C29.8498 17.1031 29.8562 17.1031 29.8562 17.1088C29.8562 17.1145 29.8619 17.1151 29.8619 17.1151L36.2578 26.1035L36.9174 27.0302Z" fill="url(#paint2_linear_1_29)"/>
<g style="mix-blend-mode:multiply" opacity="0.2">
<path d="M36.9175 27.0305L21.4042 48.821H15.4049L34.4419 23.5537L36.9175 27.0305Z" fill="black"/>
</g>
<g style="mix-blend-mode:multiply" opacity="0.25">
<path d="M60.1189 29.5661L46.4147 48.8208H25.4832C27.2264 48.7113 28.9788 48.6569 30.7192 48.5784C32.4595 48.4999 34.2057 48.4638 35.9489 48.403L41.1787 48.2999L46.107 48.2391L49.351 43.6547L52.8014 38.8611C53.9698 37.2748 55.1194 35.6771 56.297 34.1047C57.429 32.5799 58.5688 31.0627 59.7172 29.5529C59.0817 28.5964 58.4565 27.628 57.8261 26.6658C57.1537 25.6309 56.4822 24.6028 55.8283 23.5547C55.8494 23.5771 55.8686 23.6012 55.8856 23.6269L60.1189 29.5661Z" fill="black"/>
</g>
<g style="mix-blend-mode:multiply" opacity="0.25">
<path d="M73.823 48.821H50.8762C51.8327 48.7482 52.7891 48.6937 53.7455 48.649L56.6143 48.5035C58.5212 48.4313 60.4318 48.3728 62.3447 48.3281C64.2575 48.2857 66.1704 48.2496 68.0833 48.237C69.6145 48.2313 71.14 48.2193 72.6712 48.2193C71.9388 47.19 71.2145 46.153 70.4981 45.1081C69.5606 43.7519 68.6323 42.3899 67.7136 41.0222L66.3475 38.9644C65.8936 38.2687 65.4306 37.589 64.9916 36.8882C64.108 35.4962 63.2002 34.1163 62.3464 32.6997L73.823 48.821Z" fill="black"/>
</g>
<g style="mix-blend-mode:screen" opacity="0.5">
<path d="M55.168 22.6172C53.8121 20.9227 52.5107 19.1977 51.1853 17.4843C50.5131 16.619 49.8672 15.7474 49.2116 14.8758L47.6317 12.7629C46.6816 14.1491 45.7372 15.5353 44.775 16.9153C43.6977 18.4591 42.6324 20.0098 41.5424 21.5461L38.276 26.1587L34.9832 30.7466C32.7678 33.7912 30.5466 36.8359 28.2887 39.8507C27.1506 41.3516 26.0309 42.865 24.8745 44.3538C23.718 45.8426 22.5822 47.3503 21.4063 48.8237L36.9201 27.0326L47.6162 12.0024L55.168 22.6172Z" fill="white"/>
</g>
<g style="mix-blend-mode:screen" opacity="0.5">
<path d="M62.3412 32.7139C62.2748 32.8468 61.7361 33.9247 60.8398 35.4198C60.3619 36.2221 59.7928 37.1447 59.151 38.1132C58.8301 38.5911 58.5098 39.1 58.1585 39.5963C57.8072 40.0926 57.4565 40.6072 57.105 41.1097C56.7417 41.6117 56.3784 42.1143 56.0162 42.6043C55.6649 43.0948 55.2896 43.567 54.9389 44.0272C54.2306 44.9441 53.5527 45.7945 52.9532 46.5028C51.8335 47.8403 50.9859 48.7062 50.8902 48.8088L62.3367 32.7139H62.3412Z" fill="white"/>
</g>
<g style="mix-blend-mode:screen" opacity="0.5">
<path d="M29.8423 17.0968C28.6131 15.5833 27.4354 14.0338 26.232 12.4968C25.2635 13.9553 24.2951 15.4194 23.3025 16.867C22.2493 18.4287 21.1839 19.9802 20.1066 21.5214C19.0413 23.0772 17.9513 24.6159 16.8682 26.1522C15.7852 27.6886 14.6906 29.2273 13.5875 30.7527C11.3961 33.8152 9.16848 36.8537 6.9045 39.8684C5.77901 41.3755 4.64093 42.8832 3.4908 44.372C2.32864 45.8551 1.18481 47.3559 -0.00485229 48.8212L26.2183 12L29.8423 17.0968Z" fill="white"/>
</g>
</g>
<path d="M89.68 48.7111C88.4 48.7111 87.264 48.4311 86.272 47.8711C85.28 47.3111 84.496 46.5431 83.92 45.5671C83.344 44.5751 83.056 43.4551 83.056 42.2071C83.056 40.9431 83.344 39.8231 83.92 38.8471C84.496 37.8711 85.28 37.1111 86.272 36.5671C87.264 36.0071 88.4 35.7271 89.68 35.7271C90.944 35.7271 92.072 36.0071 93.064 36.5671C94.072 37.1111 94.856 37.8711 95.416 38.8471C95.992 39.8071 96.28 40.9271 96.28 42.2071C96.28 43.4711 95.992 44.5911 95.416 45.5671C94.856 46.5431 94.072 47.3111 93.064 47.8711C92.072 48.4311 90.944 48.7111 89.68 48.7111ZM89.68 46.6951C90.496 46.6951 91.224 46.5111 91.864 46.1431C92.52 45.7751 93.032 45.2551 93.4 44.5831C93.768 43.8951 93.952 43.1031 93.952 42.2071C93.952 41.2951 93.768 40.5111 93.4 39.8551C93.032 39.1831 92.52 38.6631 91.864 38.2951C91.224 37.9271 90.496 37.7431 89.68 37.7431C88.864 37.7431 88.136 37.9271 87.496 38.2951C86.856 38.6631 86.344 39.1831 85.96 39.8551C85.576 40.5111 85.384 41.2951 85.384 42.2071C85.384 43.1031 85.576 43.8951 85.96 44.5831C86.344 45.2551 86.856 45.7751 87.496 46.1431C88.136 46.5111 88.864 46.6951 89.68 46.6951Z" fill="white" fill-opacity="0.97"/>
<path d="M99.607 48.5671V35.8471H101.911V41.2471H109.159V35.8471H111.463V48.5671H109.159V43.2391H101.911V48.5671H99.607Z" fill="white" fill-opacity="0.97"/>
<path d="M118.463 48.5671V37.2631L119.039 37.8631H113.807V35.8471H125.423V37.8631H120.215L120.767 37.2631V48.5671H118.463Z" fill="white" fill-opacity="0.97"/>
<path d="M135.579 48.5671V45.8791L135.459 45.3751V40.7911C135.459 39.8151 135.171 39.0631 134.595 38.5351C134.035 37.9911 133.187 37.7191 132.051 37.7191C131.299 37.7191 130.563 37.8471 129.843 38.1031C129.123 38.3431 128.515 38.6711 128.019 39.0871L127.059 37.3591C127.715 36.8311 128.499 36.4311 129.411 36.1591C130.339 35.8711 131.307 35.7271 132.315 35.7271C134.059 35.7271 135.403 36.1511 136.347 36.9991C137.291 37.8471 137.763 39.1431 137.763 40.8871V48.5671H135.579ZM131.403 48.7111C130.459 48.7111 129.627 48.5511 128.907 48.2311C128.203 47.9111 127.659 47.4711 127.275 46.9111C126.891 46.3351 126.699 45.6871 126.699 44.9671C126.699 44.2791 126.859 43.6551 127.179 43.0951C127.515 42.5351 128.051 42.0871 128.787 41.7511C129.539 41.4151 130.547 41.2471 131.811 41.2471H135.843V42.9031H131.907C130.755 42.9031 129.979 43.0951 129.579 43.4791C129.179 43.8631 128.979 44.3271 128.979 44.8711C128.979 45.4951 129.227 45.9991 129.723 46.3831C130.219 46.7511 130.907 46.9351 131.787 46.9351C132.651 46.9351 133.403 46.7431 134.043 46.3591C134.699 45.9751 135.171 45.4151 135.459 44.6791L135.915 46.2631C135.611 47.0151 135.075 47.6151 134.307 48.0631C133.539 48.4951 132.571 48.7111 131.403 48.7111Z" fill="white" fill-opacity="0.97"/>
<path d="M157.008 48.5671L152.952 42.3751L154.848 41.2231L159.744 48.5671H157.008ZM150.312 43.1911V41.2231H154.44V43.1911H150.312ZM155.064 42.4711L152.88 42.1831L156.936 35.8471H159.408L155.064 42.4711ZM142.728 48.5671H139.992L144.864 41.2231L146.76 42.3751L142.728 48.5671ZM151.008 48.5671H148.704V35.8471H151.008V48.5671ZM149.4 43.1911H145.296V41.2231H149.4V43.1911ZM144.672 42.4711L140.328 35.8471H142.776L146.832 42.1831L144.672 42.4711Z" fill="white" fill-opacity="0.97"/>
<path d="M86.2 29.6673C85.6667 29.6673 85.17 29.5806 84.71 29.4073C84.2567 29.2273 83.86 28.9773 83.52 28.6573C83.1867 28.3306 82.9267 27.9473 82.74 27.5073C82.5533 27.0673 82.46 26.5873 82.46 26.0673C82.46 25.5473 82.5533 25.0673 82.74 24.6273C82.9267 24.1873 83.19 23.8073 83.53 23.4873C83.87 23.1606 84.2667 22.9106 84.72 22.7373C85.1733 22.5573 85.67 22.4673 86.21 22.4673C86.7833 22.4673 87.3067 22.5673 87.78 22.7673C88.2533 22.9606 88.6533 23.2506 88.98 23.6373L88.14 24.4273C87.8867 24.154 87.6033 23.9506 87.29 23.8173C86.9767 23.6773 86.6367 23.6073 86.27 23.6073C85.9033 23.6073 85.5667 23.6673 85.26 23.7873C84.96 23.9073 84.6967 24.0773 84.47 24.2973C84.25 24.5173 84.0767 24.7773 83.95 25.0773C83.83 25.3773 83.77 25.7073 83.77 26.0673C83.77 26.4273 83.83 26.7573 83.95 27.0573C84.0767 27.3573 84.25 27.6173 84.47 27.8373C84.6967 28.0573 84.96 28.2273 85.26 28.3473C85.5667 28.4673 85.9033 28.5273 86.27 28.5273C86.6367 28.5273 86.9767 28.4606 87.29 28.3273C87.6033 28.1873 87.8867 27.9773 88.14 27.6973L88.98 28.4973C88.6533 28.8773 88.2533 29.1673 87.78 29.3673C87.3067 29.5673 86.78 29.6673 86.2 29.6673Z" fill="white" fill-opacity="0.97"/>
<path d="M92.3319 29.6373C91.7386 29.6373 91.2186 29.5206 90.7719 29.2873C90.3319 29.0473 89.9886 28.7206 89.7419 28.3073C89.5019 27.894 89.3819 27.424 89.3819 26.8973C89.3819 26.364 89.4986 25.894 89.7319 25.4873C89.9719 25.074 90.2986 24.7506 90.7119 24.5173C91.1319 24.284 91.6086 24.1673 92.1419 24.1673C92.6619 24.1673 93.1253 24.2806 93.5319 24.5073C93.9386 24.734 94.2586 25.054 94.4919 25.4673C94.7253 25.8806 94.8419 26.3673 94.8419 26.9273C94.8419 26.9806 94.8386 27.0406 94.8319 27.1073C94.8319 27.174 94.8286 27.2373 94.8219 27.2973H90.3719V26.4673H94.1619L93.6719 26.7273C93.6786 26.4206 93.6153 26.1506 93.4819 25.9173C93.3486 25.684 93.1653 25.5006 92.9319 25.3673C92.7053 25.234 92.4419 25.1673 92.1419 25.1673C91.8353 25.1673 91.5653 25.234 91.3319 25.3673C91.1053 25.5006 90.9253 25.6873 90.7919 25.9273C90.6653 26.1606 90.6019 26.4373 90.6019 26.7573V26.9573C90.6019 27.2773 90.6753 27.5606 90.8219 27.8073C90.9686 28.054 91.1753 28.244 91.4419 28.3773C91.7086 28.5106 92.0153 28.5773 92.3619 28.5773C92.6619 28.5773 92.9319 28.5306 93.1719 28.4373C93.4119 28.344 93.6253 28.1973 93.8119 27.9973L94.4819 28.7673C94.2419 29.0473 93.9386 29.264 93.5719 29.4173C93.2119 29.564 92.7986 29.6373 92.3319 29.6373Z" fill="white" fill-opacity="0.97"/>
<path d="M99.1691 29.6373C98.7358 29.6373 98.3391 29.5373 97.9791 29.3373C97.6258 29.1373 97.3425 28.8373 97.1291 28.4373C96.9225 28.0306 96.8191 27.5173 96.8191 26.8973C96.8191 26.2706 96.9191 25.7573 97.1191 25.3573C97.3258 24.9573 97.6058 24.6606 97.9591 24.4673C98.3125 24.2673 98.7158 24.1673 99.1691 24.1673C99.6958 24.1673 100.159 24.2806 100.559 24.5073C100.966 24.734 101.286 25.0506 101.519 25.4573C101.759 25.864 101.879 26.344 101.879 26.8973C101.879 27.4506 101.759 27.934 101.519 28.3473C101.286 28.754 100.966 29.0706 100.559 29.2973C100.159 29.524 99.6958 29.6373 99.1691 29.6373ZM96.2091 31.5073V24.2273H97.3991V25.4873L97.3591 26.9073L97.4591 28.3273V31.5073H96.2091ZM99.0291 28.5673C99.3291 28.5673 99.5958 28.5006 99.8291 28.3673C100.069 28.234 100.259 28.0406 100.399 27.7873C100.539 27.534 100.609 27.2373 100.609 26.8973C100.609 26.5506 100.539 26.254 100.399 26.0073C100.259 25.754 100.069 25.5606 99.8291 25.4273C99.5958 25.294 99.3291 25.2273 99.0291 25.2273C98.7291 25.2273 98.4591 25.294 98.2191 25.4273C97.9791 25.5606 97.7891 25.754 97.6491 26.0073C97.5091 26.254 97.4391 26.5506 97.4391 26.8973C97.4391 27.2373 97.5091 27.534 97.6491 27.7873C97.7891 28.0406 97.9791 28.234 98.2191 28.3673C98.4591 28.5006 98.7291 28.5673 99.0291 28.5673Z" fill="white" fill-opacity="0.97"/>
<path d="M103.123 29.5673V24.2273H105.733C106.38 24.2273 106.887 24.3473 107.253 24.5873C107.627 24.8273 107.813 25.1673 107.813 25.6073C107.813 26.0406 107.64 26.3806 107.293 26.6273C106.947 26.8673 106.487 26.9873 105.913 26.9873L106.063 26.6773C106.71 26.6773 107.19 26.7973 107.503 27.0373C107.823 27.2706 107.983 27.614 107.983 28.0673C107.983 28.5406 107.807 28.9106 107.453 29.1773C107.1 29.4373 106.563 29.5673 105.843 29.5673H103.123ZM104.313 28.6573H105.743C106.083 28.6573 106.34 28.604 106.513 28.4973C106.687 28.384 106.773 28.214 106.773 27.9873C106.773 27.7473 106.693 27.5706 106.533 27.4573C106.373 27.344 106.123 27.2873 105.783 27.2873H104.313V28.6573ZM104.313 26.4573H105.623C105.943 26.4573 106.183 26.4006 106.343 26.2873C106.51 26.1673 106.593 26.0006 106.593 25.7873C106.593 25.5673 106.51 25.404 106.343 25.2973C106.183 25.1906 105.943 25.1373 105.623 25.1373H104.313V26.4573Z" fill="white" fill-opacity="0.97"/>
<path d="M109.315 29.5673V24.2273H110.565V27.7473L113.515 24.2273H114.655V29.5673H113.405V26.0473L110.465 29.5673H109.315Z" fill="white" fill-opacity="0.97"/>
<path d="M118.766 29.6373C118.206 29.6373 117.706 29.5206 117.266 29.2873C116.833 29.0473 116.493 28.7206 116.246 28.3073C115.999 27.894 115.876 27.424 115.876 26.8973C115.876 26.364 115.999 25.894 116.246 25.4873C116.493 25.074 116.833 24.7506 117.266 24.5173C117.706 24.284 118.206 24.1673 118.766 24.1673C119.286 24.1673 119.743 24.274 120.136 24.4873C120.536 24.694 120.839 25.0006 121.046 25.4073L120.086 25.9673C119.926 25.714 119.729 25.5273 119.496 25.4073C119.269 25.2873 119.023 25.2273 118.756 25.2273C118.449 25.2273 118.173 25.294 117.926 25.4273C117.679 25.5606 117.486 25.754 117.346 26.0073C117.206 26.254 117.136 26.5506 117.136 26.8973C117.136 27.244 117.206 27.544 117.346 27.7973C117.486 28.044 117.679 28.234 117.926 28.3673C118.173 28.5006 118.449 28.5673 118.756 28.5673C119.023 28.5673 119.269 28.5073 119.496 28.3873C119.729 28.2673 119.926 28.0806 120.086 27.8273L121.046 28.3873C120.839 28.7873 120.536 29.0973 120.136 29.3173C119.743 29.5306 119.286 29.6373 118.766 29.6373Z" fill="white" fill-opacity="0.97"/>
<path d="M78 47L47.5 4.5L37 18.5L26 3.5L11 24" stroke="white" stroke-width="3"/>
<defs>
<linearGradient id="paint0_linear_1_29" x1="35.0322" y1="30.7415" x2="49.3848" y2="40.9464" gradientUnits="userSpaceOnUse">
<stop stop-color="#F55233"/>
<stop offset="1" stop-color="#A53826"/>
</linearGradient>
<linearGradient id="paint1_linear_1_29" x1="57.3014" y1="41.1639" x2="68.3767" y2="54.6516" gradientUnits="userSpaceOnUse">
<stop stop-color="#9A3D2D"/>
<stop offset="1" stop-color="#1E4450"/>
</linearGradient>
<linearGradient id="paint2_linear_1_29" x1="13.3644" y1="30.5945" x2="26.9642" y2="39.8695" gradientUnits="userSpaceOnUse">
<stop stop-color="#FCC400"/>
<stop offset="0.162" stop-color="#FBC000"/>
<stop offset="0.307" stop-color="#FBB500"/>
<stop offset="0.446" stop-color="#FBA300"/>
<stop offset="0.581" stop-color="#FA8900"/>
<stop offset="0.712" stop-color="#FA6800"/>
<stop offset="0.842" stop-color="#F93F00"/>
<stop offset="0.967" stop-color="#F81000"/>
<stop offset="1" stop-color="#F80300"/>
</linearGradient>
</defs>
</svg>
