<svg width="30" height="30" viewBox="0 0 30 30" fill="none" xmlns="http://www.w3.org/2000/svg">
<path fill-rule="evenodd" clip-rule="evenodd" d="M13.7968 0.0550618C12.9553 0.11916 11.7334 0.344919 10.8472 0.600017C5.93985 2.01242 1.9984 5.95023 0.587283 10.8503C-0.636743 15.1008 0.0743543 19.6999 2.51698 23.3308C3.98969 25.52 6.02308 27.2964 8.37393 28.4475C9.93311 29.211 11.2021 29.6089 12.8916 29.8639C14.0844 30.044 15.9288 30.0455 17.0976 29.8676C20.4193 29.3616 23.283 27.9282 25.6072 25.6081C27.938 23.2816 29.3628 20.4422 29.8644 17.1246C30.0452 15.9292 30.0452 14.0951 29.8644 12.8997C29.609 11.2104 29.1772 9.83779 28.432 8.34621C26.0406 3.55962 21.4039 0.44849 16.0661 0.0489348C15.174 -0.0178737 14.7386 -0.0166955 13.7968 0.0550618ZM16.4787 2.40785C18.7326 2.67367 20.8043 3.50731 22.6675 4.89821C23.3903 5.43774 24.5884 6.63664 25.1328 7.36505C26.8412 9.65098 27.6824 12.1744 27.6821 15.0122C27.682 16.961 27.3136 18.6304 26.4863 20.4324C26.0956 21.2833 25.2392 22.589 24.5604 23.3688L24.3888 23.5658L24.1531 23.1626C21.6248 18.8383 16.4605 16.8825 11.6761 18.4375C10.9433 18.6757 9.81499 19.2298 9.12635 19.6898C7.79398 20.5796 6.67782 21.7656 5.85798 23.1626L5.62138 23.5658L5.44985 23.3688C3.82412 21.5014 2.7659 19.1715 2.41967 16.697C2.30213 15.8571 2.29978 14.1812 2.41501 13.3626C2.81966 10.4877 4.01292 8.08457 6.04347 6.05504C8.57658 3.52321 11.8899 2.21573 15.4767 2.3325C15.7522 2.34146 16.2031 2.37539 16.4787 2.40785ZM14.5041 7.06182C12.3966 7.27786 10.6818 8.84521 10.2571 10.9437C10.1825 11.3124 10.164 11.617 10.1855 12.1219C10.236 13.306 10.662 14.3027 11.4899 15.1741C12.6813 16.4279 14.3204 16.9515 15.9814 16.6089C16.9546 16.4082 17.8035 15.9284 18.5199 15.1745C19.388 14.2607 19.8351 13.1504 19.8375 11.902C19.8429 9.00999 17.3722 6.76778 14.5041 7.06182ZM16.0812 9.58317C17.1667 10.1066 17.7492 11.3333 17.4563 12.4789C17.2021 13.4732 16.4333 14.1803 15.3993 14.3708C14.4319 14.549 13.3644 14.051 12.8414 13.1776C12.0128 11.7936 12.6468 10.039 14.1799 9.47371C14.4431 9.37661 14.6149 9.35764 15.0935 9.37267C15.6173 9.38905 15.7273 9.41249 16.0812 9.58317ZM15.8303 20.2574C18.6223 20.5502 21.0164 22.1637 22.3138 24.627L22.6069 25.1834L21.9743 25.6021C20.7436 26.4166 18.984 27.1489 17.5692 27.4356C15.7734 27.7994 13.8466 27.771 12.0874 27.3547C10.7523 27.0389 9.1801 26.356 8.00624 25.5822L7.40271 25.1844L7.69608 24.6275C8.11735 23.8278 8.57263 23.2252 9.26333 22.5536C11.0212 20.8442 13.4218 20.0048 15.8303 20.2574Z" fill="white"/>
</svg>
