<svg width="36" height="36" viewBox="0 0 36 36" fill="none" xmlns="http://www.w3.org/2000/svg">
<path fill-rule="evenodd" clip-rule="evenodd" d="M16.8006 1.01669C16.6724 1.03172 16.2831 1.07483 15.9353 1.11256C13.7393 1.35073 11.3076 2.17436 9.3453 3.34468C6.8479 4.83407 4.81807 6.86301 3.32803 9.35931C2.16678 11.3047 1.39551 13.5654 1.08082 15.9464C0.973061 16.7616 0.973061 19.2561 1.08082 20.0712C1.39551 22.4523 2.16678 24.713 3.32803 26.6584C4.81807 29.1547 6.8479 31.1836 9.3453 32.673C11.2915 33.8337 13.5532 34.6047 15.9353 34.9192C16.7508 35.0269 19.2464 35.0269 20.0619 34.9192C24.2064 34.3719 27.7194 32.5524 30.5865 29.4683C32.1726 27.7621 33.4135 25.6399 34.1751 23.3312C34.7754 21.5113 35 20.0621 35 18.0088C35 16.4898 34.9358 15.8188 34.6631 14.4828C33.7278 9.90219 30.7835 5.80872 26.6519 3.34468C24.7255 2.19578 22.4283 1.40855 20.1285 1.10903C19.5448 1.03305 17.2132 0.968322 16.8006 1.01669ZM20.3614 3.16731C21.9524 3.43296 23.1271 3.80646 24.5546 4.50062C26.4644 5.42923 28.1562 6.73753 29.4621 8.29558C32.9274 12.4301 33.9449 17.9571 32.1749 23.0318C31.6504 24.5357 30.5761 26.3929 29.4621 27.7221C26.9894 30.6721 23.2427 32.6218 19.3631 32.9772C15.3835 33.3418 11.4019 32.0808 8.2811 29.4673C5.32977 26.9957 3.37928 23.2507 3.02366 19.3727C2.65892 15.3948 3.92053 11.4151 6.53514 8.29558C8.51059 5.93872 11.4079 4.14349 14.4098 3.41633C15.0733 3.25566 16.1633 3.07224 16.8006 3.01416C17.5169 2.94883 19.5856 3.03778 20.3614 3.16731ZM12.1537 7.86726C11.5358 8.03352 11.2077 8.28354 9.94253 9.55271C8.80724 10.6916 8.68664 10.8356 8.43238 11.3559C8.06365 12.1105 7.94797 12.5723 7.90145 13.4757C7.61591 19.0187 14.243 26.5834 20.5944 27.9645C21.3699 28.133 23.0365 28.1347 23.6561 27.9675C24.2559 27.8055 24.8543 27.515 25.3047 27.1671C25.9959 26.6332 27.7307 24.8001 27.9376 24.3849C28.2079 23.8426 28.2959 23.2493 28.194 22.6556C28.053 21.8339 27.8303 21.5108 26.4543 20.1315C25.4262 19.1009 25.1476 18.859 24.785 18.6822C24.1668 18.3809 23.5866 18.3024 22.9448 18.4333C22.2764 18.5695 21.8731 18.8232 21.1144 19.5848L20.4962 20.2053L18.1519 17.8627L15.8076 15.5201L16.4875 14.8185C17.2486 14.033 17.4903 13.6258 17.5957 12.9515C17.6849 12.3802 17.5897 11.7814 17.3208 11.2229C17.1471 10.8619 16.9079 10.5854 15.875 9.55152C14.907 8.58245 14.5504 8.26903 14.2381 8.11282C13.5433 7.76534 12.8405 7.68251 12.1537 7.86726ZM13.1854 9.82901C13.2885 9.86733 13.8601 10.3838 14.4556 10.9766C16.018 12.5319 16.0172 12.5109 14.5679 13.9506C14.0337 14.4811 13.5538 14.9961 13.5014 15.0949C13.3777 15.3281 13.38 15.7051 13.5068 15.972C13.5622 16.0887 15.0372 17.6103 16.7848 19.3535C19.5714 22.1331 19.9928 22.5284 20.2117 22.5684C20.7612 22.6691 20.8767 22.5993 22.0232 21.4732C23.1278 20.3882 23.2569 20.304 23.6893 20.3865C23.964 20.4389 26.0838 22.5247 26.1903 22.8474C26.341 23.3038 26.264 23.4248 25.07 24.6069C24.457 25.2137 23.8644 25.7563 23.753 25.8126C22.2665 26.5641 19.5916 25.9329 16.967 24.2113C12.8405 21.5046 9.72901 16.8278 9.89707 13.5846C9.95451 12.477 10.0453 12.3103 11.2696 11.0647C12.5812 9.73035 12.7054 9.65024 13.1854 9.82901Z" fill="white" stroke="white"/>
</svg>
